# xmcd CD database file
#
# Track frame offsets:
#        150
#        35550
#        55000
#        61055
#        89187
#        95812
#        121697
#        154340
#        183690
#
# Disc length: 3264 seconds
#
# Revision: 0
# Processed by: cddbd v1.5.2PL0 Copyright (c) Steve Scherf et al.
# Submitted via: CUERipper 2.1.5
#
DISCID=7b0cbe09
DTITLE=Wolfgang Amadeus Mozart - Academy of St. Martin‐in‐the‐Fields, Neville Marriner - Amadeus
DYEAR=1984
DGENRE=
TTITLE0=Wolfgang Amadeus Mozart - Symphony no. 25 in G minor, K. 173dB/183: I. Allegro con brio
TTITLE1=Giovanni Battista Pergolesi - Stabat Mater: Quando corpus morietur - Amen
TTITLE2=[anonymous] - Bubak and Hungaricus (Early 18th Century Gypsy Music)
TTITLE3=Wolfgang Amadeus Mozart - Serenade no. 10 for 12 Winds and Contrabass in B-flat major, K. 370a/361 "Gran partita": III. Adagio
TTITLE4=Wolfgang Amadeus Mozart - Die Entführung aus dem Serail, KV 384: Act III, Nr. 21b Chorus: "Bassa Selim leve lange!"
TTITLE5=Wolfgang Amadeus Mozart - Symphony no. 29 in A major, K. 186a/201: I. Allegro moderato
TTITLE6=Wolfgang Amadeus Mozart - Concerto for 2 Pianos and Orchestra no. 10 in E-flat major, K. 316a/365: III. Rondo. Allegro
TTITLE7=Wolfgang Amadeus Mozart - Mass no. 17 for Soloists, Chorus and Orchestra in C minor, K. 417a/427 (fragment) "Great": I. "Kyrie"
TTITLE8=Wolfgang Amadeus Mozart - Sinfonia Concertante in E major for Violin, Viola and Orchestra, K. 320d/364: I. Allegro maestoso
EXTD=
EXTT0=
EXTT1=
EXTT2=
EXTT3=
EXTT4=
EXTT5=
EXTT6=
EXTT7=
EXTT8=
PLAYORDER=
